<svg xmlns="http://www.w3.org/2000/svg" width="500" height="500" viewBox="0 0 500 500" version="1.1"><path d="M 281.080 108.750 C 273.965 114.565, 278.618 122.579, 290 124.114 C 336.116 130.333, 374.983 166.693, 379.521 207.861 C 381.276 223.783, 397.080 221.621, 395.612 205.660 C 392.739 174.424, 370.344 142.115, 338.024 122.576 C 319.211 111.203, 287.500 103.504, 281.080 108.750 M 282.364 144.141 C 277.990 146.317, 276.629 153.629, 279.975 156.975 C 282.059 159.059, 282.283 159.132, 293.866 161.460 C 320.124 166.739, 339.823 188.119, 343.494 215.322 C 345.362 229.169, 361.150 225.883, 359.577 211.974 C 356.997 189.170, 339.508 163.574, 319.500 153.320 C 304.107 145.431, 287.850 141.413, 282.364 144.141" stroke="none" fill="#007bba" fill-rule="evenodd"/><path d="M 165.500 176.866 C 154.309 181.963, 150.205 194.159, 150.018 222.879 C 149.981 228.587, 149.543 235.112, 149.044 237.379 C 148.545 239.645, 147.837 248.700, 147.471 257.500 C 147.105 266.300, 146.624 275.975, 146.401 279 C 145.046 297.406, 144.821 304.071, 145.499 305.683 C 145.920 306.682, 146.393 308.457, 146.551 309.626 C 147.872 319.433, 156.362 329.768, 195.075 368.692 C 245.896 419.789, 236.011 419.753, 285.574 369.025 C 335.500 317.927, 335.361 318.221, 331.985 270.500 C 331.557 264.450, 330.471 248.951, 329.572 236.057 C 327.103 200.649, 326.508 197.781, 320.364 191.636 C 312.578 183.851, 301.242 183.218, 291.543 190.027 C 287.108 193.141, 284.416 195.527, 271.726 207.596 C 257.908 220.737, 254.549 223.184, 249.559 223.746 C 240.372 224.782, 238.893 223.950, 222.757 208.680 C 214.516 200.881, 204.337 191.251, 200.137 187.280 C 187.367 175.207, 176.389 171.906, 165.500 176.866 M 199.973 257.250 C 198.146 258.488, 192.413 265.575, 187.234 273 L 177.818 286.500 178.275 297.500 C 178.969 314.228, 185.748 321.406, 189.430 309.312 C 193.178 296.997, 213.661 297.502, 219.676 310.057 L 221.851 314.599 242.676 314.384 C 254.129 314.266, 263.747 314.131, 264.049 314.085 C 264.351 314.038, 265.152 312.469, 265.829 310.597 C 271.181 295.795, 291.691 295.401, 297.761 309.984 C 302.552 321.494, 310.108 311.602, 307.581 297.127 C 305.321 284.182, 304.558 283.481, 288.750 279.838 C 280.371 277.906, 279.799 277.596, 275.250 272.500 C 269.250 265.778, 261.468 259.567, 255.854 257.020 C 248.767 253.804, 204.794 253.985, 199.973 257.250 M 206.536 263.606 C 198.475 271.667, 194.723 281.530, 199.750 281.444 C 201.537 281.414, 207.950 281.301, 214 281.194 L 225 281 225 271.500 L 225 262 216.571 262 C 210.164 262, 207.758 262.385, 206.536 263.606 M 234.562 269.181 C 234.179 273.270, 234.169 277.827, 234.541 279.308 L 235.217 282 251.358 281.985 C 269.346 281.968, 271.063 281.552, 268.607 277.804 C 263.626 270.202, 251.082 263.017, 241.441 262.243 L 235.259 261.747 234.562 269.181 M 276 306.289 C 272.192 308.206, 269.557 313.827, 270.389 318.258 C 272.176 327.784, 282.882 331.318, 289.600 324.600 C 299.111 315.089, 288.063 300.213, 276 306.289 M 197.206 308.480 C 191.173 313.557, 190.870 320.711, 196.467 325.969 C 205.593 334.542, 220.262 323.142, 214.483 311.967 C 211.341 305.892, 202.422 304.091, 197.206 308.480" stroke="none" fill="#f43c34" fill-rule="evenodd"/><path d="M 0 250.002 L 0 500.004 250.250 499.752 L 500.500 499.500 500.752 249.750 L 501.004 0 250.502 0 L 0 0 0 250.002 M 0.492 250.500 C 0.492 388, 0.608 444.101, 0.750 375.170 C 0.892 306.238, 0.892 193.738, 0.750 125.170 C 0.608 56.601, 0.492 113, 0.492 250.500 M 281.080 108.750 C 273.965 114.565, 278.618 122.579, 290 124.114 C 336.116 130.333, 374.983 166.693, 379.521 207.861 C 381.276 223.783, 397.080 221.621, 395.612 205.660 C 392.739 174.424, 370.344 142.115, 338.024 122.576 C 319.211 111.203, 287.500 103.504, 281.080 108.750 M 282.364 144.141 C 277.990 146.317, 276.629 153.629, 279.975 156.975 C 282.059 159.059, 282.283 159.132, 293.866 161.460 C 320.124 166.739, 339.823 188.119, 343.494 215.322 C 345.362 229.169, 361.150 225.883, 359.577 211.974 C 356.997 189.170, 339.508 163.574, 319.500 153.320 C 304.107 145.431, 287.850 141.413, 282.364 144.141 M 165.500 176.866 C 154.309 181.963, 150.205 194.159, 150.018 222.879 C 149.981 228.587, 149.543 235.112, 149.044 237.379 C 148.545 239.645, 147.837 248.700, 147.471 257.500 C 147.105 266.300, 146.624 275.975, 146.401 279 C 145.046 297.406, 144.821 304.071, 145.499 305.683 C 145.920 306.682, 146.393 308.457, 146.551 309.626 C 147.872 319.433, 156.362 329.768, 195.075 368.692 C 245.896 419.789, 236.011 419.753, 285.574 369.025 C 335.500 317.927, 335.361 318.221, 331.985 270.500 C 331.557 264.450, 330.471 248.951, 329.572 236.057 C 327.103 200.649, 326.508 197.781, 320.364 191.636 C 312.578 183.851, 301.242 183.218, 291.543 190.027 C 287.108 193.141, 284.416 195.527, 271.726 207.596 C 257.908 220.737, 254.549 223.184, 249.559 223.746 C 240.372 224.782, 238.893 223.950, 222.757 208.680 C 214.516 200.881, 204.337 191.251, 200.137 187.280 C 187.367 175.207, 176.389 171.906, 165.500 176.866 M 199.973 257.250 C 198.146 258.488, 192.413 265.575, 187.234 273 L 177.818 286.500 178.275 297.500 C 178.969 314.228, 185.748 321.406, 189.430 309.312 C 193.178 296.997, 213.661 297.502, 219.676 310.057 L 221.851 314.599 242.676 314.384 C 254.129 314.266, 263.747 314.131, 264.049 314.085 C 264.351 314.038, 265.152 312.469, 265.829 310.597 C 271.181 295.795, 291.691 295.401, 297.761 309.984 C 302.552 321.494, 310.108 311.602, 307.581 297.127 C 305.321 284.182, 304.558 283.481, 288.750 279.838 C 280.371 277.906, 279.799 277.596, 275.250 272.500 C 269.250 265.778, 261.468 259.567, 255.854 257.020 C 248.767 253.804, 204.794 253.985, 199.973 257.250 M 206.536 263.606 C 198.475 271.667, 194.723 281.530, 199.750 281.444 C 201.537 281.414, 207.950 281.301, 214 281.194 L 225 281 225 271.500 L 225 262 216.571 262 C 210.164 262, 207.758 262.385, 206.536 263.606 M 234.562 269.181 C 234.179 273.270, 234.169 277.827, 234.541 279.308 L 235.217 282 251.358 281.985 C 269.346 281.968, 271.063 281.552, 268.607 277.804 C 263.626 270.202, 251.082 263.017, 241.441 262.243 L 235.259 261.747 234.562 269.181 M 276 306.289 C 272.192 308.206, 269.557 313.827, 270.389 318.258 C 272.176 327.784, 282.882 331.318, 289.600 324.600 C 299.111 315.089, 288.063 300.213, 276 306.289 M 197.206 308.480 C 191.173 313.557, 190.870 320.711, 196.467 325.969 C 205.593 334.542, 220.262 323.142, 214.483 311.967 C 211.341 305.892, 202.422 304.091, 197.206 308.480" stroke="none" fill="#fbfbfb" fill-rule="evenodd"/></svg>